<!DOCTYPE svg PUBLIC "-//W3C//DTD SVG 1.1//EN" "http://www.w3.org/Graphics/SVG/1.1/DTD/svg11.dtd">
<!-- Uploaded to: SVG Repo, www.svgrepo.com, Transformed by: SVG Repo Mixer Tools -->
<svg width="800px" height="800px" viewBox="0 0 24 24" xmlns="http://www.w3.org/2000/svg" fill="#808080">
<g id="SVGRepo_bgCarrier" stroke-width="0"/>
<g id="SVGRepo_tracerCarrier" stroke-linecap="round" stroke-linejoin="round"/>
<g id="SVGRepo_iconCarrier"> <g> <path d="M0 0h24v24H0z" fill="none"/> <path d="M21 13v7a1 1 0 0 1-1 1H4a1 1 0 0 1-1-1v-7H2v-2l1-5h18l1 5v2h-1zM5 13v6h14v-6H5zm-.96-2h15.92l-.6-3H4.64l-.6 3zM6 14h8v3H6v-3zM3 3h18v2H3V3z"/> </g> </g>
</svg>